<svg width="32" height="32" viewBox="0 0 32 32" fill="none" xmlns="http://www.w3.org/2000/svg">
<g clip-path="url(#clip0_75_5133)">
<path d="M1.33333 24C1.53333 21.6222 2.26111 19.4333 3.51667 17.4333C4.77222 15.4333 6.44444 13.8445 8.53333 12.6667L6.06667 8.40001C5.93333 8.20001 5.9 7.98889 5.96667 7.76667C6.03333 7.54445 6.17778 7.37778 6.4 7.26667C6.57778 7.15556 6.77778 7.13334 7 7.20001C7.22222 7.26667 7.4 7.40001 7.53333 7.60001L10 11.8667C11.9111 11.0667 13.9111 10.6667 16 10.6667C18.0889 10.6667 20.0889 11.0667 22 11.8667L24.4667 7.60001C24.6 7.40001 24.7778 7.26667 25 7.20001C25.2222 7.13334 25.4222 7.15556 25.6 7.26667C25.8222 7.37778 25.9667 7.54445 26.0333 7.76667C26.1 7.98889 26.0667 8.20001 25.9333 8.40001L23.4667 12.6667C25.5556 13.8445 27.2278 15.4333 28.4833 17.4333C29.7389 19.4333 30.4667 21.6222 30.6667 24H1.33333ZM9.33333 20.3333C9.8 20.3333 10.1944 20.1722 10.5167 19.85C10.8389 19.5278 11 19.1333 11 18.6667C11 18.2 10.8389 17.8056 10.5167 17.4833C10.1944 17.1611 9.8 17 9.33333 17C8.86667 17 8.47222 17.1611 8.15 17.4833C7.82778 17.8056 7.66667 18.2 7.66667 18.6667C7.66667 19.1333 7.82778 19.5278 8.15 19.85C8.47222 20.1722 8.86667 20.3333 9.33333 20.3333ZM22.6667 20.3333C23.1333 20.3333 23.5278 20.1722 23.85 19.85C24.1722 19.5278 24.3333 19.1333 24.3333 18.6667C24.3333 18.2 24.1722 17.8056 23.85 17.4833C23.5278 17.1611 23.1333 17 22.6667 17C22.2 17 21.8056 17.1611 21.4833 17.4833C21.1611 17.8056 21 18.2 21 18.6667C21 19.1333 21.1611 19.5278 21.4833 19.85C21.8056 20.1722 22.2 20.3333 22.6667 20.3333Z" fill="#7164FF"/>
</g>
<defs>
<clipPath id="clip0_75_5133">
<rect width="32" height="32" fill="white"/>
</clipPath>
</defs>
</svg>
