<svg width="32" height="32" viewBox="0 0 32 32" fill="none" xmlns="http://www.w3.org/2000/svg">
<g clip-path="url(#clip0_75_5139)">
<path d="M6.33333 12V9.33334H9V12H6.33333ZM6.33333 22.6667V14.6667H9V22.6667H6.33333ZM15.6667 22.6667H13C12.2667 22.6667 11.6389 22.4056 11.1167 21.8833C10.5944 21.3611 10.3333 20.7333 10.3333 20V12C10.3333 11.2667 10.5944 10.6389 11.1167 10.1167C11.6389 9.59445 12.2667 9.33334 13 9.33334H15.6667C16.4 9.33334 17.0278 9.59445 17.55 10.1167C18.0722 10.6389 18.3333 11.2667 18.3333 12V20C18.3333 20.7333 18.0722 21.3611 17.55 21.8833C17.0278 22.4056 16.4 22.6667 15.6667 22.6667ZM13 20H15.6667V12H13V20ZM19.6667 22.6667V20H25V17.3333H22.3333C21.6 17.3333 20.9722 17.0722 20.45 16.55C19.9278 16.0278 19.6667 15.4 19.6667 14.6667V12C19.6667 11.2667 19.9278 10.6389 20.45 10.1167C20.9722 9.59445 21.6 9.33334 22.3333 9.33334H27.6667V12H22.3333V14.6667H25C25.7333 14.6667 26.3611 14.9278 26.8833 15.45C27.4056 15.9722 27.6667 16.6 27.6667 17.3333V20C27.6667 20.7333 27.4056 21.3611 26.8833 21.8833C26.3611 22.4056 25.7333 22.6667 25 22.6667H19.6667Z" fill="#7164FF"/>
</g>
<defs>
<clipPath id="clip0_75_5139">
<rect width="32" height="32" fill="white"/>
</clipPath>
</defs>
</svg>
