<svg width="32" height="32" viewBox="0 0 32 32" fill="none" xmlns="http://www.w3.org/2000/svg">
<g clip-path="url(#clip0_75_5141)">
<path d="M5.33333 26.6667C4.6 26.6667 3.97222 26.4056 3.45 25.8833C2.92778 25.3611 2.66667 24.7333 2.66667 24V8.00001C2.66667 7.26668 2.92778 6.6389 3.45 6.11668C3.97222 5.59445 4.6 5.33334 5.33333 5.33334H26.6667C27.4 5.33334 28.0278 5.59445 28.55 6.11668C29.0722 6.6389 29.3333 7.26668 29.3333 8.00001V24C29.3333 24.7333 29.0722 25.3611 28.55 25.8833C28.0278 26.4056 27.4 26.6667 26.6667 26.6667H5.33333ZM5.33333 24H26.6667V10.6667H5.33333V24Z" fill="#7164FF"/>
</g>
<defs>
<clipPath id="clip0_75_5141">
<rect width="32" height="32" fill="white"/>
</clipPath>
</defs>
</svg>
