<svg width="32" height="32" viewBox="0 0 32 32" fill="none" xmlns="http://www.w3.org/2000/svg">
<g clip-path="url(#clip0_75_5143)">
<path d="M6.66667 28C5.93333 28 5.30556 27.7389 4.78333 27.2167C4.26111 26.6944 4 26.0667 4 25.3333V8.66667C4 8.35556 4.05 8.06111 4.15 7.78333C4.25 7.50556 4.4 7.24444 4.6 7L6.46667 4.73333C6.66667 4.48889 6.89444 4.30556 7.15 4.18333C7.40556 4.06111 7.68889 4 8 4H24C24.3111 4 24.5944 4.06111 24.85 4.18333C25.1056 4.30556 25.3333 4.48889 25.5333 4.73333L27.4 7C27.6 7.24444 27.75 7.50556 27.85 7.78333C27.95 8.06111 28 8.35556 28 8.66667V25.3333C28 26.0667 27.7389 26.6944 27.2167 27.2167C26.6944 27.7389 26.0667 28 25.3333 28H6.66667ZM7.2 8H24.8L23.6667 6.66667H8.33333L7.2 8ZM6.66667 25.3333H25.3333V10.6667H6.66667V25.3333ZM19.4 22.7333L24.1333 18L19.4 13.2667L17.4667 15.2L20.2667 18L17.4667 20.8L19.4 22.7333ZM12.6667 22.7333L14.6 20.8L11.8 18L14.6 15.2L12.6667 13.2667L7.93333 18L12.6667 22.7333Z" fill="#7164FF"/>
</g>
<defs>
<clipPath id="clip0_75_5143">
<rect width="32" height="32" fill="white"/>
</clipPath>
</defs>
</svg>
