<svg width="24" height="24" viewBox="0 0 24 24" fill="none" xmlns="http://www.w3.org/2000/svg">
<path d="M19 10V7C19 5.897 18.103 5 17 5H14C14 3.346 12.654 2 11 2C9.346 2 8 3.346 8 5H5C3.897 5 3 5.897 3 7V11H4C4.53043 11 5.03914 11.2107 5.41421 11.5858C5.78929 11.9609 6 12.4696 6 13C6 13.5304 5.78929 14.0391 5.41421 14.4142C5.03914 14.7893 4.53043 15 4 15H3V19C3 20.103 3.897 21 5 21H9V20C9 19.4696 9.21071 18.9609 9.58579 18.5858C9.96086 18.2107 10.4696 18 11 18C11.5304 18 12.0391 18.2107 12.4142 18.5858C12.7893 18.9609 13 19.4696 13 20V21H17C18.103 21 19 20.103 19 19V16C20.654 16 22 14.654 22 13C22 11.346 20.654 10 19 10Z" fill="#7164FF"/>
</svg>
