<svg width="24" height="24" viewBox="0 0 24 24" fill="none" xmlns="http://www.w3.org/2000/svg">
<path d="M19.665 16.811C19.3881 17.4565 19.046 18.072 18.644 18.648C18.107 19.415 17.666 19.945 17.328 20.24C16.803 20.722 16.239 20.97 15.636 20.984C15.204 20.984 14.682 20.861 14.074 20.611C13.464 20.362 12.904 20.24 12.391 20.24C11.854 20.24 11.278 20.362 10.661 20.611C10.045 20.861 9.547 20.992 9.166 21.004C8.589 21.029 8.012 20.775 7.437 20.24C7.07 19.92 6.611 19.37 6.06 18.592C5.47 17.763 4.985 16.798 4.605 15.701C4.198 14.514 3.994 13.366 3.994 12.254C3.994 10.981 4.269 9.88199 4.82 8.96199C5.23675 8.23946 5.83255 7.63643 6.55 7.21099C7.25747 6.78666 8.06509 6.55818 8.89 6.54899C9.35 6.54899 9.953 6.69099 10.7 6.97099C11.447 7.25099 11.927 7.39299 12.136 7.39299C12.294 7.39299 12.825 7.22599 13.729 6.89499C14.582 6.58799 15.302 6.46099 15.892 6.51099C17.492 6.63999 18.693 7.26999 19.492 8.40599C18.062 9.27299 17.355 10.486 17.369 12.043C17.381 13.256 17.822 14.265 18.686 15.066C19.068 15.4315 19.5137 15.724 20.001 15.929C19.895 16.236 19.783 16.529 19.665 16.811ZM15.998 2.37999C15.998 3.32999 15.65 4.21799 14.959 5.03899C14.123 6.01499 13.113 6.57999 12.018 6.49099C12.0037 6.37153 11.9967 6.25131 11.997 6.13099C11.997 5.21799 12.393 4.24199 13.1 3.44299C13.452 3.03899 13.9 2.70199 14.443 2.43399C14.985 2.16999 15.497 2.02399 15.979 1.99899C15.992 2.12699 15.998 2.25399 15.998 2.37999Z" fill="#7164FF"/>
</svg>
