<svg width="60" height="60" viewBox="0 0 60 60" fill="none" xmlns="http://www.w3.org/2000/svg">
<path d="M37.2834 26.653L37.6699 26.6017L37.4774 26.6327L37.6699 26.6018L37.6699 26.602L37.6701 26.6029L37.6706 26.6063L37.6728 26.6198L37.6814 26.673L37.7147 26.8754C37.7435 27.0502 37.7854 27.3005 37.8372 27.6024C37.9407 28.2064 38.0839 29.0166 38.2427 29.842C38.4015 30.6681 38.5755 31.5068 38.7404 32.1689C38.8229 32.5004 38.9023 32.784 38.9756 32.9983C39.0122 33.1056 39.0462 33.1922 39.0769 33.2573C39.1097 33.3269 39.1314 33.3556 39.1379 33.3621C39.1378 33.3621 39.1379 33.3621 39.138 33.3622C39.1396 33.3635 39.1565 33.3766 39.2055 33.3921C39.2551 33.4078 39.3234 33.4216 39.4113 33.4314C39.5868 33.451 39.8203 33.4528 40.0959 33.4356C40.646 33.4011 41.3414 33.2921 42.0319 33.1165C42.7236 32.9406 43.3996 32.7005 43.9158 32.4083C44.4438 32.1096 44.7523 31.7863 44.8079 31.4666C44.872 31.0981 44.7929 30.4901 44.6188 29.756C44.4468 29.0316 44.1902 28.2151 43.9233 27.4459C43.6566 26.6775 43.3809 25.9599 43.1716 25.4341C43.0671 25.1713 42.9792 24.9567 42.9176 24.8078C42.8867 24.7334 42.8624 24.6755 42.8459 24.6362L42.827 24.5916L42.8222 24.5803L42.8211 24.5775L42.8208 24.5768L42.8207 24.5767L43 24.5L42.8207 24.5766L43.1771 24.4183L46.1201 30.795C48.3154 30.6147 49.3504 30.1402 49.8396 29.6818C50.2972 29.253 50.3017 28.8172 50.3045 28.5427C50.3045 28.5345 50.3046 28.5265 50.3047 28.5186L48.5856 20.1795L48.5854 20.1785L46.9577 12.4742L46.9574 12.4743L46.9558 12.4638C46.9357 12.334 46.9133 12.2085 46.8888 12.087C46.6403 10.8568 46.1223 9.97556 45.172 9.37814C44.2114 8.77427 42.7856 8.44492 40.6879 8.38185C37.137 8.65004 35.0175 8.83413 33.5665 9.1904C32.1348 9.54193 31.3664 10.058 30.5188 11.0043L28.0234 13.7968C27.4078 14.697 26.2647 15.6155 25.0724 16.3798C23.8714 17.1497 22.5945 17.7795 21.6996 18.0888L21.6995 18.0888C19.0936 18.9878 15.7055 19.436 12.8 19.676C11.3452 19.7961 10.0075 19.8643 8.94428 19.9102C8.60249 19.925 8.29022 19.9374 8.01197 19.9485C7.42032 19.972 6.98243 19.9894 6.74136 20.0102C6.22669 20.0545 5.76426 20.334 5.38836 20.6849C5.02745 21.0218 4.7621 21.41 4.6247 21.6709C4.59791 21.914 4.61037 22.1434 4.65414 22.3602C4.84482 23.3042 5.20363 24.7217 6.03631 25.865C6.85998 26.9959 8.15074 27.8652 10.2435 27.7247L10.2435 27.7246L10.2487 27.7244C10.7426 27.7045 11.5299 27.5654 12.4901 27.3514C13.4461 27.1384 14.5602 26.8541 15.7014 26.5491C16.7539 26.2679 17.832 25.9682 18.8279 25.6915C19.9854 25.3698 21.0318 25.079 21.7979 24.8838L22.041 24.8218L22.041 25.0727L22.041 31.8045C22.041 33.22 22.0064 35.412 21.9654 38.0161C21.9558 38.6233 21.9458 39.253 21.9359 39.9004C21.8836 43.3116 21.8313 47.2192 21.8309 50.9535C22.5539 52.3696 23.6855 53.0347 24.7913 53.1062C25.9123 53.1786 27.0292 52.6433 27.7066 51.614C27.781 51.5009 27.8612 51.3157 27.9431 51.0546C28.0242 50.7965 28.1035 50.476 28.1808 50.1003C28.3353 49.349 28.4792 48.3883 28.6123 47.2875C28.8785 45.0867 29.0998 42.339 29.2766 39.6143C29.6303 34.1636 29.805 28.8198 29.805 28.1521L30.1893 28.1055L30 28.1521L30.1894 28.1056L30.1894 28.1057L30.1896 28.1064L30.1902 28.1091L30.1928 28.1197L30.2031 28.1612L30.242 28.32C30.2758 28.4575 30.3243 28.6555 30.3834 28.8976C30.5016 29.3816 30.6622 30.0419 30.8318 30.7467C31.1705 32.1544 31.5465 33.7454 31.6911 34.4614C31.705 34.5299 31.7552 34.6098 31.8722 34.6939C31.9892 34.778 32.1583 34.8551 32.3753 34.9188C32.8087 35.0461 33.3962 35.1095 34.0384 35.0943C35.3321 35.0636 36.7724 34.7164 37.571 34.0168C37.5786 34.0101 37.5988 33.9863 37.6229 33.9273C37.6461 33.8704 37.6679 33.7933 37.6869 33.6948C37.725 33.4978 37.7479 33.2362 37.7575 32.9242C37.7767 32.3015 37.7421 31.5048 37.6829 30.6799C37.5901 29.3854 37.4383 28.0379 37.3448 27.2077C37.3192 26.9799 37.2979 26.7911 37.2834 26.653Z" fill="#FFE500" stroke="black" stroke-width="0.39"/>
<path d="M6.0011 23.22C5.84863 23.1475 5.78386 22.965 5.85642 22.8126C5.92899 22.6601 6.11141 22.5953 6.26387 22.6679L6.0011 23.22ZM14.1362 19.3612C14.1364 19.4871 14.1913 19.658 14.2919 19.898C14.383 20.1156 14.5125 20.3914 14.5931 20.655C14.6749 20.9225 14.7268 21.2357 14.6257 21.5438C14.5206 21.8643 14.271 22.1186 13.877 22.3062L13.6142 21.7541C13.903 21.6166 14.0057 21.4722 14.0447 21.3532C14.0878 21.2219 14.0759 21.0548 14.0084 20.8338C13.9397 20.6091 13.8344 20.3884 13.7279 20.1342C13.6308 19.9024 13.5252 19.6262 13.5247 19.3624L14.1362 19.3612ZM13.877 22.3062C13.4151 22.526 12.7388 22.7111 11.9933 22.8616C11.2419 23.0134 10.3985 23.1343 9.58944 23.219C8.78061 23.3038 8.00084 23.3528 7.37648 23.3597C7.06473 23.3632 6.78708 23.3562 6.56172 23.337C6.35046 23.3189 6.14272 23.2874 6.0011 23.22L6.26387 22.6679C6.29479 22.6826 6.40101 22.7096 6.61374 22.7277C6.81239 22.7447 7.06877 22.7517 7.36971 22.7483C7.97075 22.7417 8.731 22.6941 9.52575 22.6109C10.3203 22.5277 11.144 22.4094 11.8723 22.2623C12.6065 22.114 13.2224 21.9406 13.6142 21.7541L13.877 22.3062Z" fill="black"/>
</svg>
